<svg xmlns="http://www.w3.org/2000/svg" width="186.22" height="35" viewBox="0 0 186.22 35"><rect class="svg__rect" x="0" y="0" width="127.25" height="35" fill="#31C4F3"/><rect class="svg__rect" x="125.25" y="0" width="60.97" height="35" fill="#389AD5"/><path class="svg__text" d="M15.70 22L14.22 22L14.22 13.47L17.48 13.47Q18.91 13.47 19.75 14.21Q20.59 14.96 20.59 16.18L20.59 16.18Q20.59 17.44 19.77 18.13Q18.95 18.83 17.46 18.83L17.46 18.83L15.70 18.83L15.70 22ZM15.70 14.66L15.70 17.64L17.48 17.64Q18.27 17.64 18.69 17.27Q19.10 16.90 19.10 16.19L19.10 16.19Q19.10 15.50 18.68 15.09Q18.26 14.68 17.52 14.66L17.52 14.66L15.70 14.66ZM24.61 18.00L24.61 18.00L24.61 17.52Q24.61 16.28 25.05 15.32Q25.49 14.37 26.30 13.86Q27.10 13.35 28.14 13.35Q29.19 13.35 29.99 13.85Q30.80 14.35 31.24 15.29Q31.68 16.23 31.68 17.48L31.68 17.48L31.68 17.96Q31.68 19.21 31.25 20.16Q30.82 21.10 30.01 21.61Q29.21 22.12 28.16 22.12L28.16 22.12Q27.12 22.12 26.31 21.61Q25.50 21.10 25.05 20.17Q24.61 19.23 24.61 18.00ZM26.09 17.46L26.09 17.96Q26.09 19.36 26.64 20.13Q27.18 20.90 28.16 20.90L28.16 20.90Q29.14 20.90 29.67 20.15Q30.20 19.40 30.20 17.96L30.20 17.96L30.20 17.51Q30.20 16.09 29.67 15.34Q29.13 14.58 28.14 14.58L28.14 14.58Q27.18 14.58 26.64 15.33Q26.10 16.09 26.09 17.46L26.09 17.46ZM37.53 22L35.56 13.47L37.03 13.47L38.36 19.88L39.99 13.47L41.23 13.47L42.84 19.89L44.15 13.47L45.62 13.47L43.65 22L42.24 22L40.61 15.77L38.96 22L37.53 22ZM55.27 22L49.70 22L49.70 13.47L55.23 13.47L55.23 14.66L51.18 14.66L51.18 17.02L54.68 17.02L54.68 18.19L51.18 18.19L51.18 20.82L55.27 20.82L55.27 22ZM60.95 22L59.47 22L59.47 13.47L62.47 13.47Q63.95 13.47 64.75 14.13Q65.55 14.79 65.55 16.05L65.55 16.05Q65.55 16.90 65.14 17.48Q64.72 18.06 63.99 18.37L63.99 18.37L65.90 21.92L65.90 22L64.31 22L62.60 18.71L60.95 18.71L60.95 22ZM60.95 14.66L60.95 17.52L62.48 17.52Q63.23 17.52 63.65 17.15Q64.07 16.77 64.07 16.11L64.07 16.11Q64.07 15.43 63.68 15.05Q63.29 14.68 62.52 14.66L62.52 14.66L60.95 14.66ZM75.52 22L69.95 22L69.95 13.47L75.48 13.47L75.48 14.66L71.43 14.66L71.43 17.02L74.93 17.02L74.93 18.19L71.43 18.19L71.43 20.82L75.52 20.82L75.52 22ZM82.17 22L79.72 22L79.72 13.47L82.24 13.47Q83.37 13.47 84.25 13.97Q85.12 14.48 85.60 15.40Q86.08 16.33 86.08 17.52L86.08 17.52L86.08 17.95Q86.08 19.16 85.60 20.08Q85.12 21.00 84.22 21.50Q83.33 22 82.17 22L82.17 22ZM81.20 14.66L81.20 20.82L82.17 20.82Q83.33 20.82 83.96 20.09Q84.58 19.36 84.59 17.99L84.59 17.99L84.59 17.52Q84.59 16.13 83.99 15.40Q83.39 14.66 82.24 14.66L82.24 14.66L81.20 14.66ZM99.64 22L96.52 22L96.52 13.47L99.45 13.47Q100.89 13.47 101.65 14.05Q102.41 14.63 102.41 15.78L102.41 15.78Q102.41 16.36 102.09 16.83Q101.77 17.30 101.16 17.56L101.16 17.56Q101.86 17.75 102.23 18.26Q102.61 18.78 102.61 19.51L102.61 19.51Q102.61 20.71 101.84 21.36Q101.07 22 99.64 22L99.64 22ZM98.01 18.15L98.01 20.82L99.65 20.82Q100.35 20.82 100.74 20.47Q101.14 20.13 101.14 19.51L101.14 19.51Q101.14 18.18 99.78 18.15L99.78 18.15L98.01 18.15ZM98.01 14.66L98.01 17.06L99.46 17.06Q100.15 17.06 100.54 16.75Q100.93 16.43 100.93 15.86L100.93 15.86Q100.93 15.23 100.57 14.95Q100.21 14.66 99.45 14.66L99.45 14.66L98.01 14.66ZM109.12 18.86L106.26 13.47L107.90 13.47L109.87 17.51L111.83 13.47L113.47 13.47L110.61 18.86L110.61 22L109.12 22L109.12 18.86Z" fill="#FFFFFF"/><path class="svg__text" d="M139.01 17.80L139.01 17.80Q139.01 16.54 139.61 15.54Q140.21 14.55 141.27 13.99Q142.34 13.43 143.69 13.43L143.69 13.43Q144.86 13.43 145.80 13.83Q146.74 14.22 147.36 14.97L147.36 14.97L145.85 16.33Q145.00 15.40 143.83 15.40L143.83 15.40Q143.81 15.40 143.81 15.40L143.81 15.40Q142.73 15.40 142.07 16.06Q141.41 16.71 141.41 17.80L141.41 17.80Q141.41 18.50 141.71 19.04Q142.01 19.59 142.55 19.89Q143.09 20.20 143.79 20.20L143.79 20.20Q144.47 20.20 145.07 19.93L145.07 19.93L145.07 17.62L147.17 17.62L147.17 21.10Q146.45 21.61 145.51 21.89Q144.58 22.17 143.64 22.17L143.64 22.17Q142.32 22.17 141.26 21.61Q140.21 21.05 139.61 20.05Q139.01 19.06 139.01 17.80ZM152.09 18.26L152.09 18.26L152.09 13.60L154.47 13.60L154.47 18.19Q154.47 20.20 156.06 20.20L156.06 20.20Q157.64 20.20 157.64 18.19L157.64 18.19L157.64 13.60L159.99 13.60L159.99 18.26Q159.99 20.13 158.95 21.15Q157.91 22.17 156.04 22.17L156.04 22.17Q154.16 22.17 153.13 21.15Q152.09 20.13 152.09 18.26ZM164.64 17.80L164.64 17.80Q164.64 16.55 165.25 15.55Q165.85 14.56 166.92 14.00Q167.98 13.43 169.31 13.43L169.31 13.43Q170.64 13.43 171.70 14.00Q172.77 14.56 173.37 15.55Q173.98 16.55 173.98 17.80L173.98 17.80Q173.98 19.05 173.37 20.04Q172.77 21.04 171.71 21.60Q170.64 22.17 169.31 22.17L169.31 22.17Q167.98 22.17 166.92 21.60Q165.85 21.04 165.25 20.04Q164.64 19.05 164.64 17.80ZM167.04 17.80L167.04 17.80Q167.04 18.51 167.34 19.05Q167.64 19.60 168.16 19.90Q168.68 20.20 169.31 20.20L169.31 20.20Q169.95 20.20 170.46 19.90Q170.98 19.60 171.28 19.05Q171.58 18.51 171.58 17.80L171.58 17.80Q171.58 17.09 171.28 16.54Q170.98 16 170.46 15.70Q169.95 15.40 169.31 15.40L169.31 15.40Q168.67 15.40 168.16 15.70Q167.64 16 167.34 16.54Q167.04 17.09 167.04 17.80Z" fill="#FFFFFF" x="138.25"/></svg>